inDegrees=no
num_controls=7
num_derivatives=13
num_iterations=113
num_multipliers=7
num_parameters=0
num_slacks=7
num_states=26
objective=5.596417
objective_accelerations=0.878122
objective_balance=0.018746
objective_effort=0.198409
objective_height=4.426691
objective_ligament=0.074449
solver_duration=1289.616506
status=Solve_Succeeded
success=true
DataType=double
version=3
OpenSimVersion=4.4-2022-07-23-0e9fedc
endheader
time	/jointset/ground_pelvis/pelvis_tilt/value	/jointset/ground_pelvis/pelvis_tx/value	/jointset/ground_pelvis/pelvis_ty/value	/jointset/hip_l/hip_flexion_l/value	/jointset/hip_l/hip_adduction_l/value	/jointset/hip_l/hip_rotation_l/value	/jointset/back/lumbar_extension/value	/jointset/patellofemoral_l/patellar_flexion_l/value	/jointset/knee_l/knee_flexion_l/value	/jointset/knee_l/knee_adduction_l/value	/jointset/knee_l/knee_rotation_l/value	/jointset/ankle_l/ankle_angle_l/value	/jointset/subtalar_l/subtalar_angle_l/value	/jointset/ground_pelvis/pelvis_tilt/speed	/jointset/ground_pelvis/pelvis_tx/speed	/jointset/ground_pelvis/pelvis_ty/speed	/jointset/hip_l/hip_flexion_l/speed	/jointset/hip_l/hip_adduction_l/speed	/jointset/hip_l/hip_rotation_l/speed	/jointset/back/lumbar_extension/speed	/jointset/patellofemoral_l/patellar_flexion_l/speed	/jointset/knee_l/knee_flexion_l/speed	/jointset/knee_l/knee_adduction_l/speed	/jointset/knee_l/knee_rotation_l/speed	/jointset/ankle_l/ankle_angle_l/speed	/jointset/subtalar_l/subtalar_angle_l/speed	/forceset/tau_hip_flexion_l	/forceset/tau_hip_adduction_l	/forceset/tau_hip_rotation_l	/forceset/tau_knee_flexion_l	/forceset/tau_ankle_angle_l	/forceset/tau_subtalar_angle_l	/forceset/tau_lumbar_extension	lambda_cid13_p0	lambda_cid13_p1	lambda_cid13_p2	lambda_cid13_p3	lambda_cid13_p4	lambda_cid13_p5	lambda_cid14_p0	/jointset/ground_pelvis/pelvis_tilt/accel	/jointset/ground_pelvis/pelvis_tx/accel	/jointset/ground_pelvis/pelvis_ty/accel	/jointset/hip_l/hip_flexion_l/accel	/jointset/hip_l/hip_adduction_l/accel	/jointset/hip_l/hip_rotation_l/accel	/jointset/back/lumbar_extension/accel	/jointset/patellofemoral_l/patellar_flexion_l/accel	/jointset/knee_l/knee_flexion_l/accel	/jointset/knee_l/knee_adduction_l/accel	/jointset/knee_l/knee_rotation_l/accel	/jointset/ankle_l/ankle_angle_l/accel	/jointset/subtalar_l/subtalar_angle_l/accel	gamma_cid13_p0	gamma_cid13_p1	gamma_cid13_p2	gamma_cid13_p3	gamma_cid13_p4	gamma_cid13_p5	gamma_cid14_p0
0.5	-0.2446481622429836	0.0204004641255638	0.7522990966212293	1.084012865492188	-0.3580621860637835	0.008637922224256061	-0.4052323926791422	1.028344351109022	1.028344351109154	-0.0108157309671679	-0.1745038377868539	0.3238212888878533	0.1752002758839987	-0.8135452947646997	-0.1853474277720376	-0.6092835403701097	2.640527243833711	0.05432875872544506	0.5390357001489219	-0.2962703278134888	2.179947248069912	2.179947248069792	0.3819548879067345	0.0005957003220179388	0.5334699387301672	0.3082384151381187	-0.1115604305889516	0.03130962052167777	-0.00408199760951388	-0.2089544408655076	0.0128892949847448	0.01565528241600893	0.121135770263881	-19.95661638314061	-1.116966183787034	-2.60200219357969	-3.286704088533654	-436.1590099900994	-62.71258576962277	-2.855365654744645	0.4611630579396015	0.5365493853020112	-0.5544643659476929	-1.337882233896188	0.06268687716123195	-0.8603880235733153	1.53807431155553	-1.706291239978815	-1.706291239978664	-0.1618969066277819	-0.01455616863056958	-0.9922383342376486	0.02873142490025445	-3.820098778268142e-07	-4.191074072514525e-07	5.301530387126602e-06	2.755895256939948e-07	-1.097936928595007e-06	-5.487327215928383e-07	-6.803256416157603e-07
0.51	-0.252758389224525	0.01857413815046852	0.7461800842771367	1.110346172467961	-0.3575177664437644	0.01398914580151976	-0.4081191488504554	1.050054862173453	1.050054862173512	-0.007011310449876118	-0.1744991858400044	0.3291049586897887	0.1782804640630218	-0.808377522606367	-0.17989239585735	-0.6143749733564556	2.625769929846213	0.05453125347695894	0.53134634815809	-0.281070762712873	2.161851630394576	2.161851630394568	0.378740732103367	0.0003916169589793026	0.5231833768111338	0.3077079820280773	-0.1166103804030661	0.0323442868437854	-0.004263761075655472	-0.2123076259379397	0.0118953187278144	0.01558031100270216	0.1249949617422172	-20.53612125623697	-0.7782770334613992	-2.889772153329465	-3.22121099077661	-440.0883219288112	-62.60737394170816	-2.343201856816405	0.5629462483004057	0.5538058906072301	-0.4650583040588864	-1.599330094477511	-0.005050369757984922	-0.7031502272356727	1.512419169636728	-1.90658651935162	-1.9065865193345	-0.4295988102422524	-0.01410392248967589	-1.059022126287793	-0.1079029809268553	-2.448280575664494e-07	-1.73888782646402e-06	2.530880117176968e-06	-7.496321675838424e-08	-6.691283100392928e-07	-1.115148899139172e-06	-4.66171234015527e-07
0.52	-0.2608132660937781	0.01680312765373185	0.7400144424953639	1.136520971481232	-0.3569721381050022	0.01926748757081544	-0.4108536050586914	1.071575339163536	1.071575339163477	-0.00324471626937781	-0.1744947286272038	0.3342833314714193	0.181352553450551	-0.8024752723072549	-0.1742843321003129	-0.6186094279059732	2.608825651326684	0.05457050247223192	0.5244593385513577	-0.2658103351993732	2.14194043319762	2.141940433197726	0.3743896205780074	0.0005567535019534396	0.5124105346700341	0.3066186568392066	-0.1216603302168667	0.03337895316612037	-0.004445524543932306	-0.2156608110103681	0.01090134247092539	0.01550533958976679	0.128854153220838	-21.11308632191297	-0.4447697124563091	-3.171304126148682	-3.18634244282556	-443.9456131950495	-62.57087441814368	-1.885978835913201	0.6080586860957614	0.5671557537717629	-0.3830686785820559	-1.775275140302596	0.03003772591273987	-0.6999195467540317	1.55024679413232	-2.069407144302421	-2.069407144302519	-0.3892880510258077	0.05928781257143178	-1.08949437865118	-0.08304699086581636	-1.342252336303709e-07	-3.186621299679145e-06	4.865453333487425e-08	-4.293502027118552e-07	-3.157883496932476e-07	-1.941630516849703e-06	-2.89982904656528e-07
0.53	-0.2688059215256035	0.0150889453568709	0.7338107873126236	1.162515921762115	-0.3564259796546073	0.02447258343163621	-0.4134349774670942	1.092887708027165	1.092887708026947	0.0004811802182944465	-0.1744902262937938	0.3393520249201938	0.1844125641648108	-0.7959579759356169	-0.1685253308316	-0.6219704913089795	2.58980975288115	0.05465286863513755	0.5165620562288974	-0.2504613565996833	2.120231322057735	2.120231322057892	0.3707429860969396	0.0003666407525358039	0.5012711605879852	0.3053233517986271	-0.1264393427517717	0.0330096393526856	-0.00466322773898096	-0.2196782388838424	0.01025638072244061	0.0161972420544488	0.1325159446476088	-21.51241533044083	-0.5488976589399116	-3.299133691587347	-3.337921483745707	-448.0389057411895	-63.58931832103832	-1.481862422813579	0.6882048982377925	0.5841686805252867	-0.2899836104011115	-2.017976135107396	-0.003471693908723195	-0.834527663143842	1.527641875001098	-2.266926231542252	-2.266926231534403	-0.3598938455882362	-0.05510216174606763	-1.134897625015506	-0.1610173356633658	-7.326996020562626e-08	-3.833812902175049e-06	-1.239261623791664e-06	-6.011728131170754e-07	-1.255126447054841e-07	-2.330802441906256e-06	-1.884600064939634e-07
0.54	-0.2767304760366117	0.01343313234611905	0.7275780498080043	1.188310067270889	-0.3558791590936464	0.02959872745158944	-0.4158627763930723	1.113973933152865	1.113973933152443	0.004169101821220943	-0.1744870133564269	0.3443075768877394	0.1874579728136636	-0.7888550881423786	-0.1626104748784929	-0.6244258922816223	2.56866469689851	0.0547029245824972	0.5086689703803585	-0.2350956387154427	2.09671168560941	2.096711685609617	0.3667946436582608	0.0002988742812003627	0.4897822384245756	0.3036982437576592	-0.1312183552863648	0.03264032553929384	-0.004880930935364104	-0.2236956667573528	0.00961141897392399	0.01688914451919604	0.1361777360746796	-21.90844694997055	-0.6633591377012182	-3.414173837620096	-3.508738895898761	-452.1013701211078	-64.64425376839866	-1.129241908561467	0.7251769704162457	0.5983266906504973	-0.2019361925093672	-2.201106647723689	0.02357568280334815	-0.6990802519702346	1.553594651042448	-2.431512205990535	-2.431512205990671	-0.4496296425476234	0.08375706818749613	-1.159403994923485	-0.1490075909436043	-6.724389160193252e-08	-3.595298605151804e-06	-1.205814159871192e-06	-5.710093058944414e-07	-1.15648456284332e-07	-2.23614236657968e-06	-1.695456705061783e-07
0.55	-0.2845809314686764	0.01183703519197655	0.7213252610501754	1.213882402007373	-0.3553319553212059	0.03464607784976826	-0.418137004338381	1.134816306376538	1.134816306376381	0.007816173440166628	-0.1744837699444068	0.3491465072820064	0.1904854800416819	-0.7811225680313081	-0.1566036255398395	-0.625982626370524	2.545467825749869	0.05472897901526593	0.5007705046474343	-0.2197652839642995	2.071490501186725	2.071490501186712	0.3625995175534517	0.0003419621357146561	0.4779412567355504	0.3017354287726371	-0.1364442076029817	0.03380245138000643	-0.005236884925430746	-0.2267734668538653	0.007922150979992418	0.01661526724737234	0.1400402663055348	-22.74906501704674	-0.2150477326229092	-3.69373992291318	-3.159339966931837	-456.1205457840091	-64.37027458378471	-0.8268579947718788	0.8142723376882999	0.6025527054686617	-0.1101791336631527	-2.42916851077311	-0.008823444040086625	-0.8400200055931597	1.520455844391014	-2.608258405165214	-2.608258405197792	-0.4079398032939875	-0.03695164197893905	-1.206000388568382	-0.2293936832055677	-5.906955282735825e-08	-3.369996493991446e-06	-1.176232731191298e-06	-5.456342532192044e-07	-1.033531583934422e-07	-2.153592561470864e-06	-1.505885915312606e-07
0.5600000000000001	-0.2923506651384037	0.01030114426122123	0.7150613775281396	1.23921272979992	-0.3547846797579363	0.03961348553627913	-0.4202583887447308	1.155398300387015	1.155398300387148	0.01142059665643929	-0.1744804029110371	0.3538651168328459	0.1934914640736659	-0.7727107356707658	-0.1505692302010546	-0.6266448451227581	2.520263308107741	0.05471728274588077	0.4926804280488938	-0.2045269309235255	2.044635842973716	2.044635842973483	0.3582649630947859	0.0003235985477509584	0.4657180697394553	0.299393604550639	-0.1416700599193681	0.03496457722075597	-0.005592838914028129	-0.2298512669503417	0.006232882986016455	0.01634138997555264	0.1439027965365993	-23.59093993350499	0.2279447734669377	-3.966132837936573	-2.814770019614993	-460.1234913806703	-64.12289513407042	-0.5737624466172032	0.861039420311019	0.6038358906767017	-0.02303312517585689	-2.602635946420705	0.01602554237255625	-0.7374024250939814	1.535194308968575	-2.758206964055218	-2.758206964055337	-0.4775153133185817	0.07146677969162811	-1.235845056337592	-0.2248094383388798	-4.831728984772745e-08	-3.160549005866551e-06	-1.151290544800101e-06	-5.260053460008436e-07	-8.814052913886715e-08	-2.085575080623361e-06	-1.315802209717837e-07
0.5700000000000001	-0.300033327487881	0.008825772248611101	0.7087953467639584	1.264281344739336	-0.3542376117377938	0.04449922490080502	-0.4222278676673036	1.17570374310048	1.175703743100644	0.01498108657420267	-0.1744771292201842	0.3584598593462912	0.1964723384413209	-0.7637344368999999	-0.1444948124530024	-0.6264085289708679	2.493132258494577	0.05469033712850833	0.4844175051787418	-0.1894067410395776	2.016187888139853	2.016187888139681	0.3538306450140926	0.0003255562830130417	0.4531948340229035	0.2967271631146631	-0.1463263554744495	0.03492871795008246	-0.005978325576576054	-0.233791709325825	0.005502033114653522	0.0165986488003606	0.1473483116786227	-24.06489567536965	0.341542597499969	-4.146828175795679	-2.833080498247088	-464.1445170317571	-64.69795706230292	-0.3692197802478442	0.9289918026892858	0.6106957166365414	0.0698648896954136	-2.817476350148292	-0.01261788600084297	-0.8783967392139929	1.494748210651945	-2.927787314338765	-2.927787314329122	-0.4271366866532539	-0.03661941517047324	-1.266048713247197	-0.2950598810435638	-5.453993537547006e-08	-2.830254382733626e-06	-8.091507690273013e-07	-4.695849375952933e-07	-1.086230806580686e-07	-1.846119494284281e-06	-1.494760112765141e-07
0.58	-0.3076236135102278	0.007411434613436723	0.7025362593421596	1.289068821806363	-0.353690925828245	0.04930080313229996	-0.4240472813145253	1.195716766751341	1.195716766751545	0.01849708398543823	-0.1744740718890421	0.3629282723257914	0.1994250487176533	-0.7542354702399712	-0.1383623547139041	-0.6252561766460603	2.464035733626147	0.05464086062286461	0.4758482014590018	-0.1745138758538674	1.986152030454499	1.986152030454388	0.3493664616850153	0.0002803265937358924	0.4404521629490056	0.2937607862860004	-0.1509826510292576	0.03489285867908099	-0.006363812235481416	-0.2377321517012401	0.004771183243125291	0.01685590762454205	0.1507938268209145	-24.53881312087437	0.4472632566936646	-4.317279253901587	-2.865445228524057	-468.1718172880666	-65.30670336623653	-0.2126685383239449	0.9655729981640057	0.6154438888858944	0.1601741094076455	-2.995730997473667	0.01151936471847357	-0.7986785950120833	1.489729369320997	-3.075787534353421	-3.075787534353348	-0.4834883629949885	0.06202929478354118	-1.279732127806808	-0.2847965168762744	-8.286943849420955e-08	-2.342577444241416e-06	-5.39164582459265e-08	-3.652500160157314e-07	-1.755923792314883e-07	-1.383395677537578e-06	-2.154330343346283e-07
